<svg xmlns="http://www.w3.org/2000/svg" xmlns:xlink="http://www.w3.org/1999/xlink" width="424" height="424" viewBox="0 0 424 424">
    <defs>
        <path id="jbff7hdqba" d="M0.051 0L424 0 424 424 0.051 424z"/>
    </defs>
    <g fill="none" fill-rule="evenodd">
        <g>
            <g>
                <g transform="translate(-169 -172) translate(169 172)">
                    <mask id="4g47rzpq4b" fill="#fff">
                        <use xlink:href="#jbff7hdqba"/>
                    </mask>
                    <path fill="#FDFCFA" d="M0.051 424L424 424 424 0 0.051 0z" mask="url(#4g47rzpq4b)"/>
                </g>
                <path fill="#AC5163" d="M335.77 383c-3.184 0-5.789-2.62-5.789-5.822v-.087c0-3.202 2.605-5.822 5.79-5.822 3.184 0 5.79 2.62 5.79 5.822v.087c0 3.202-2.606 5.822-5.79 5.822zm25.63-30H61.6c-3.079 0-5.6 2.535-5.6 5.633 0 3.097 2.521 5.634 5.6 5.634h17.615c3.16 0 5.746 2.6 5.746 5.776 0 3.179-2.585 5.779-5.746 5.779h-1.902c-1.962 0-3.568 1.615-3.568 3.59 0 1.974 1.606 3.588 3.568 3.588H319.36c3.21 0 5.834-2.639 5.834-5.865 0-3.225-2.626-5.866-5.834-5.866h-1.595c-1.916 0-3.483-1.575-3.483-3.501 0-1.927 1.567-3.5 3.483-3.5h43.634c3.08 0 5.601-2.538 5.601-5.635 0-3.098-2.521-5.633-5.6-5.633z" transform="translate(-169 -172) translate(169 172)"/>
                <path fill="#F7D6D4" d="M55.85 94.601c4.142 0 7.5-3.36 7.5-7.505 0-4.144-3.358-7.504-7.5-7.504-4.142 0-7.5 3.36-7.5 7.504 0 4.145 3.358 7.505 7.5 7.505zm292.035-34.016c5.404 0 9.784-4.384 9.784-9.792 0-5.408-4.38-9.793-9.784-9.793-5.405 0-9.786 4.385-9.786 9.793 0 5.408 4.38 9.792 9.786 9.792zM77.49 353C42.57 353 14 324.409 14 289.466c0-34.942 28.57-63.533 63.49-63.533 14.765 0 26.845-12.088 26.845-26.863 0-14.776-12.08-26.864-26.845-26.864h-3.195c-15.35 0-27.91-12.568-27.91-27.929 0-15.362 12.56-27.93 27.91-27.93h9.802c5.975 0 10.865-4.893 10.865-10.872v-.001c0-5.98-4.89-10.873-10.865-10.873h-7.203c-4.125 0-7.499-3.377-7.499-7.505 0-4.127 3.374-7.504 7.5-7.504h48.412c6.482 0 11.784-5.307 11.784-11.792 0-6.485-5.302-11.79-11.784-11.79h-14.475c-4.125 0-7.499-3.378-7.499-7.505 0-4.128 3.374-7.505 7.5-7.505h212.01c5.383 0 9.787 4.407 9.787 9.792 0 5.386-4.404 9.793-9.786 9.793h-4.05c-8.457 0-15.376 6.924-15.376 15.386s6.92 15.387 15.376 15.387h46.636c5.38 0 9.785 4.407 9.785 9.791 0 5.386-4.404 9.793-9.785 9.793h-9.398c-7.798 0-14.178 6.385-14.178 14.188 0 7.804 6.38 14.188 14.178 14.188h12.79c20.03 0 36.42 16.4 36.42 36.444v.001c0 20.044-16.39 36.444-36.42 36.444h-4.169c-19.267 0-35.032 15.775-35.032 35.053 0 19.28 15.765 35.054 35.032 35.054h9.027c19.426 0 35.32 15.904 35.32 35.343 0 19.44-15.894 35.343-35.32 35.343H77.49z" transform="translate(-169 -172) translate(169 172)"/>
                <path fill="#DE8591" d="M125.675 103.58c-.057-.1-.47-.865-.581-2.17-1.438-2.179-1.321-5.031-.439-7.797.613-1.92 1.596-3.8 2.672-5.37 1.09-1.592 2.29-2.882 3.317-3.586.808-.556 1.572-.783 2.203-.588.771.24 1.28.666 1.61 1.175 1.158.25 4.649 1.295 5.275 4.836 1.026.513 2.089 1.443 2.608 3.128 1.237.559 5.23 2.746 3.712 7.128.074.077.146.158.218.244.994 1.213.913 2.288.118 3.299-.655.831-1.837 1.57-3.281 2.3-1.7.859-4.722 1.97-7.925 1.804-2.144-.11-4.365-.785-6.33-2.469-.928-.164-1.758-.513-2.43-1.09-.262-.225-.499-.485-.708-.78l-.04-.064" transform="translate(-169 -172) translate(169 172)"/>
                <path fill="#3D3C67" d="M152.712 136.201c.339.233.426.696.195 1.036-.231.34-.694.427-1.033.195-8.954-6.134-19.648-8.716-30.066-7.745-10.236.953-20.207 5.338-28.003 13.153-8.877 8.9-13.316 20.634-13.316 32.368 0 11.733 4.439 23.466 13.316 32.367l67.977 68.153c.29.29.29.763 0 1.054-.29.29-.762.29-1.052 0L92.753 208.63C83.585 199.438 79 187.322 79 175.208c0-12.116 4.585-24.231 13.753-33.422 8.047-8.069 18.346-12.596 28.92-13.58 10.755-1.002 21.795 1.663 31.04 7.995" transform="translate(-169 -172) translate(169 172)"/>
                <path fill="#DE8591" d="M125.025 260.467c-4.251 5.104-9.924 11.912-21.935 9.054l-.057-.015c-.393-.116-.616-.533-.5-.931 3.325-11.21 9.945-14.985 16.03-15.837-.779-.224-1.55-.452-2.314-.687l-.017-.005-.002-.002c-1.114-.34-2.21-.695-3.28-1.067-1.216-.361-2.622.934-4.368 2.54-3.46 3.188-8.075 7.44-16.278 4.274l-.04-.017c-.373-.17-.54-.615-.372-.99 3.282-7.365 8.1-9.492 12.37-9.629-.744-.425-1.456-.871-2.136-1.337-2.063-.028-16.754-.8-14.977-17.147.043-.412.408-.71.815-.667l.086.016c8.64 1.42 10.485 7.411 11.867 11.904.457 1.491.858 2.791 1.429 3.592.132.014.263.065.377.152 1.919 1.508 4.205 2.798 6.742 3.938.66.156 1.276.341 1.838.533-3.49-3.391-6.413-9.153-1.748-17.846.194-.364.644-.5 1.004-.306l.066.041c7.457 4.63 6.913 10.896 6.505 15.59-.206 2.37-.372 4.278.646 5.03 2.341.716 4.767 1.375 7.223 2.008.936.093 1.818.232 2.629.393-4.284-3.314-7.986-9.21-4.506-19.339.133-.389.555-.597.941-.462l.038.013v-.002c9.36 3.832 9.905 11.062 10.312 16.478.21 2.819.381 5.083 1.798 5.741 1.235.323 2.453.65 3.65.987-3.178-2.918-5.595-7.781-2.607-15.58.147-.385.576-.576.958-.429l.054.024c7.579 3.436 7.818 9.39 7.996 13.853.09 2.269.164 4.092 1.248 4.625 1.23.474 2.407.975 3.517 1.51l.055.028c.324.157.642.316.954.48 2.307 1.203 4.629 2.998 6.164 5.312 1.272 1.92 2.003 4.192 1.75 6.77-.04.411-.403.712-.81.672-.407-.04-.705-.409-.665-.819.216-2.197-.414-4.139-1.506-5.789-1.38-2.084-3.5-3.714-5.612-4.815-.28-.148-.567-.29-.858-.433-1.802-.322-3.462 1.67-5.528 4.147-3.921 4.71-9.156 10.992-20.245 8.355l-.057-.015c-.393-.118-.616-.537-.5-.932 3.613-12.183 11.44-14.854 17.717-14.81-1.96-.598-4.003-1.159-6.095-1.703-.074-.017-.39-.086-.877-.227-1.026-.264-2.06-.524-3.1-.783-1.886-.123-3.637 1.98-5.789 4.561M81.128 184.548c-4.703.052-10.978.123-15.045-7.572l-.017-.038c-.17-.373 0-.812.38-.977 6.978-3.06 11.865-1.75 15.161.71-.088-.194-.177-.387-.263-.58-.01-.021-.021-.042-.03-.065-.31-.693-.607-1.383-.887-2.068-.008-.018-.016-.034-.023-.053-.279-.715-1.567-.869-3.173-1.06-3.318-.393-7.743-.922-9.89-6.713-.013-.029-.024-.06-.034-.09-.117-.393.112-.806.512-.92 5.06-1.472 8.343-.234 10.451 1.7-.051-.31-.095-.618-.131-.921-1.096-1.306-7.23-9.367 2.273-15.772.345-.23.814-.144 1.048.195l.021.028c3.312 5.29.948 9.004-.824 11.787-.544.853-1.018 1.6-1.19 2.198.042.088.069.185.073.288.084 1.645.443 3.387.995 5.193.07.131.135.263.198.391.439-3.221 2.425-6.847 8.716-8.192.41-.087.81.168.9.568l.014.091c.98 6.084-2.634 8.636-5.344 10.55-1.264.89-2.285 1.613-2.261 2.344.685 1.519 1.438 3.057 2.217 4.6.194.27.376.54.545.804.047-3.61 1.768-7.782 8.309-10.325.388-.151.827.036.981.418.013.03.023.062.03.093 2.274 6.703-1.334 10.257-4.04 12.92-1.33 1.307-2.399 2.36-2.147 3.266.257.513.509 1.022.756 1.53.339-2.812 2.04-5.862 7.121-7.636.393-.137.825.066.963.452l.011.036c1.714 5.643-1.383 8.481-3.703 10.608-1.098 1.007-1.98 1.816-1.803 2.487.308.842.579 1.668.803 2.477l.01.03c.01.029.016.056.02.083.945 3.463 1.039 6.6-.392 9.196-.196.361-.654.496-1.021.303-.368-.194-.505-.644-.308-1.004 1.212-2.2 1.122-4.961.281-8.066-.6-.948-2.344-.929-4.508-.904-4.343.048-10.14.113-13.9-7.001l-.019-.04c-.169-.372.001-.81.382-.977 7.364-3.23 12.21-1.19 15.225 1.688-.41-.867-.84-1.745-1.286-2.632l-.034-.067c-.042-.08-.13-.246-.244-.484-.335-.662-.675-1.329-1.02-1.996-.743-.928-2.59-.907-4.86-.881" transform="translate(-169 -172) translate(169 172)"/>
                <path fill="#3D3C67" d="M160.748 138.507c-1.452-1.548-4.309-2.975-9.142-3.497-.038-.006-.074-.009-.11-.01-.38-.007-.585.27-.459.62 1.59 4.384 3.685 6.728 5.596 7.739 2.042 1.079 3.847.69 4.752-.381.902-1.068.91-2.82-.637-4.471M148.588 137.666c-.848-1.892-3.148-4.228-7.775-6.556-.035-.019-.07-.036-.107-.052-.375-.153-.689.006-.698.355-.114 4.381 1.067 7.207 2.584 8.818 1.621 1.72 3.577 2.089 4.896 1.522 1.318-.566 2.006-2.067 1.1-4.087M137.51 134.432c-.912-1.9-3.227-4.181-7.76-6.338-.033-.017-.068-.034-.103-.047-.366-.138-.656.04-.647.398.129 4.5 1.406 7.341 2.938 8.918 1.636 1.684 3.518 1.963 4.744 1.316 1.224-.646 1.8-2.22.828-4.247M153.631 127.008c-2.119-.11-5.249.903-9.328 4.048-.032.022-.063.046-.09.073-.3.272-.28.633.041.805 4.052 2.153 7.18 2.394 9.311 1.76 2.275-.68 3.423-2.296 3.435-3.769.012-1.468-1.108-2.8-3.369-2.917M142.258 123.063c-2.015.308-4.78 1.815-8.054 5.42-.025.027-.05.055-.073.084-.232.301-.148.622.186.716 4.2 1.16 7.19.78 9.08-.199 2.02-1.044 2.81-2.717 2.557-4.042-.253-1.323-1.547-2.306-3.696-1.979M114.633 216.58c.626 2.005.561 5.267-1.067 9.988-.01.038-.024.073-.039.107-.154.357-.463.43-.691.167-2.842-3.333-3.835-6.27-3.836-8.477 0-2.356 1.075-3.873 2.317-4.265 1.238-.39 2.648.344 3.316 2.48M104.632 207.58c.627 2.007.563 5.268-1.066 9.989-.01.037-.023.074-.04.107-.153.355-.463.43-.69.165-2.842-3.33-3.834-6.27-3.836-8.476 0-2.358 1.075-3.874 2.317-4.265 1.238-.39 2.647.343 3.315 2.48M96.431 222.474c1.977.724 5.259.832 10.109-.523.037-.01.073-.02.11-.032.367-.135.46-.438.209-.675-3.172-2.98-6.065-4.114-8.283-4.233-2.369-.125-3.962.856-4.431 2.06-.469 1.2.178 2.63 2.286 3.403" transform="translate(-169 -172) translate(169 172)"/>
                <path fill="#776274" d="M124.806 103.158c.322-.253.787-.196 1.037.127.252.323.194.788-.126 1.04-7.072 5.55-8.925 14-10.718 22.177-2.87 13.094-5.592 25.516-28.26 25.498-.408 0-.739-.331-.739-.742 0-.409.331-.741.739-.741 21.474.017 24.073-11.838 26.813-24.335 1.847-8.43 3.758-17.141 11.254-23.024" transform="translate(-169 -172) translate(169 172)"/>
                <path fill="#AC5163" d="M125.597 101.7c.02.086.024.174.014.26.077.983.363 1.56.43 1.687.14.192.299.363.473.512.525.451 1.206.715 1.986.83l.02.001c1.02.146 2.211.036 3.451-.251 2.32-.537 4.777-1.694 6.662-2.985.908-.622 1.676-1.27 2.223-1.89 1.84-2.082.967-3.459-.342-4.58-.438-.376-.881-.704-1.31-1.02-.236-.175-.469-.348-.681-.512-1.023-.786-1.472-1.519-1.867-2.162-.429-.698-.772-1.258-2.089-1.545-.31-.068-.628-.076-.954-.029l-.017.003h-.005c-.807.123-1.657.58-2.518 1.31-1.427 1.208-2.845 3.128-4.134 5.496-1.127 2.071-1.384 3.716-1.342 4.876zm-1.065-2.986c.233-.792.583-1.655 1.086-2.582 1.377-2.53 2.912-4.597 4.482-5.925.912-.772 1.844-1.304 2.776-1.547.175-.847.38-2.721-1.091-3.178-.181-.056-.534.1-.994.415-.928.636-2.042 1.839-3.076 3.348-1.051 1.53-2.008 3.356-2.6 5.207-.464 1.457-.707 2.925-.583 4.262zm13.847-7.216c.257.354.584.724 1.064 1.094.217.166.436.329.659.493l.286.211c-.52-.979-1.303-1.51-2.01-1.798zm-3.92-4.522c.056.565.017 1.114-.045 1.555.16.016.318.04.477.075 1.133.247 1.774.622 2.231 1.088.157.014.357.038.587.08-.646-1.637-2.177-2.431-3.25-2.798zm10.237 14.852c-.02-.015-.042-.031-.062-.05-1.04-.78-2.483-.64-3.012-.553-.58.585-1.309 1.177-2.133 1.742-2.023 1.386-4.667 2.63-7.177 3.211-.53.122-1.055.215-1.567.275 1.297.679 2.664.988 3.999 1.057 3.021.155 5.894-.902 7.513-1.717 1.33-.672 2.394-1.323 2.919-1.988.374-.475.4-.995-.1-1.603-.117-.143-.244-.267-.38-.374zm-1.718-6.03c.673 1.08.824 2.345-.139 3.906.58.034 1.238.147 1.87.422.51-2.075-.627-3.487-1.731-4.328zm-18.231 8.597c-.059-.104-.489-.9-.605-2.26-1.501-2.27-1.38-5.241-.459-8.121.64-2 1.666-3.96 2.788-5.595 1.137-1.658 2.391-3.001 3.462-3.735.843-.579 1.64-.816 2.298-.612.805.25 1.337.694 1.681 1.224 1.209.261 4.85 1.348 5.504 5.037 1.071.534 2.18 1.502 2.722 3.259 1.29.581 5.456 2.86 3.872 7.424.078.08.154.166.228.255 1.038 1.262.953 2.382.123 3.436-.683.865-1.916 1.636-3.424 2.397-1.772.894-4.926 2.051-8.27 1.879-2.237-.115-4.554-.819-6.605-2.573-.968-.17-1.833-.534-2.535-1.136-.273-.234-.52-.504-.738-.812l-.042-.067z" transform="translate(-169 -172) translate(169 172)"/>
                <path fill="#85B0B1" d="M114.282 128.24c.245-.868.407-1.849.522-2.739.257-2.016.278-4.105-.038-6.115-.995-6.317-5.046-10.125-11.258-11.365-.487-.098-.963.155-1.157.614-2.47 5.852-1.608 11.356 3.038 15.732 1.478 1.393 3.212 2.55 5.018 3.47.798.406 1.697.822 2.55 1.107.28.093.553.07.813-.068.26-.138.432-.353.512-.636M105.082 146.482c.34-.8.81-1.635 1.26-2.372 1.024-1.67 2.272-3.251 3.726-4.569 4.57-4.143 9.94-4.556 15.389-1.735.427.221.635.699.505 1.16-1.668 5.886-5.647 9.499-11.809 9.98-1.96.153-3.972-.026-5.894-.427-.849-.177-1.783-.407-2.6-.709-.267-.099-.46-.281-.574-.54-.112-.261-.113-.527-.003-.788M97.19 150.963c.43-.164.88-.397 1.278-.624.904-.51 1.764-1.142 2.489-1.889 2.28-2.348 2.601-5.192 1.216-8.144-.11-.232-.357-.35-.604-.29-3.146.77-5.132 2.813-5.506 6.078-.119 1.039-.063 2.112.11 3.142.08.454.182.954.325 1.394.048.144.14.25.275.316.137.066.276.071.417.017M117.417 117.841c.44.084.93.125 1.377.146 1.007.045 2.042-.023 3.024-.25 3.086-.712 4.81-2.782 5.178-5.781.029-.236-.115-.452-.35-.527-2.994-.953-5.684-.336-7.665 2.039-.63.755-1.135 1.623-1.518 2.517-.17.394-.34.838-.447 1.254-.035.136-.013.265.066.383s.192.192.335.22" transform="translate(-169 -172) translate(169 172)"/>
                <path fill="#776274" d="M316.045 118.99c-.14-.382.056-.805.44-.945.382-.14.806.056.946.437.02.054 6.929 18.893 13.305 24.219.313.26.353.725.092 1.036-.262.311-.727.352-1.039.091-6.682-5.581-13.723-24.784-13.744-24.839" transform="translate(-169 -172) translate(169 172)"/>
                <path fill="#DE8591" d="M299.771 108.253c.253-4.639 4.739-5.193 6.084-5.255 1.11-1.375 2.435-1.847 3.571-1.942 1.904-3.066 5.502-2.743 6.662-2.548.493-.352 1.121-.56 1.919-.497.653.051 1.269.547 1.803 1.362.677 1.036 1.295 2.681 1.7 4.567.397 1.86.594 3.976.435 5.984-.227 2.902-1.193 5.6-3.333 7.094-.524 1.037-1.107 1.594-1.294 1.757-.034.034-.072.064-.114.09-.295.195-.612.348-.944.462-.832.288-1.722.307-2.633.118-2.44.84-4.735.646-6.747-.046-3.004-1.034-5.364-3.189-6.602-4.617-1.052-1.215-1.86-2.34-2.147-3.356-.352-1.236-.023-2.266 1.345-3.025.1-.054.198-.103.295-.148" transform="translate(-169 -172) translate(169 172)"/>
                <path fill="#3D3C67" d="M270.126 137.432c-.34.232-.802.145-1.034-.195-.229-.34-.143-.803.197-1.036 9.243-6.332 20.283-8.997 31.039-7.996 10.573.986 20.871 5.512 28.92 13.58 9.168 9.192 13.752 21.308 13.752 33.423 0 12.115-4.584 24.23-13.752 33.422l-67.978 68.152c-.291.29-.76.29-1.052 0-.29-.29-.29-.763 0-1.054l67.976-68.153c8.878-8.9 13.316-20.634 13.316-32.367 0-11.734-4.438-23.467-13.316-32.368-7.795-7.815-17.766-12.2-28-13.153-10.42-.97-21.114 1.611-30.068 7.745" transform="translate(-169 -172) translate(169 172)"/>
                <path fill="#DE8591" d="M310.354 257.283c-8.056 3.489-12.887-.437-16.506-3.379-1.75-1.422-3.173-2.579-4.341-2.305-.668.297-1.333.593-1.99.892-.297.144-.504.236-.583.267l-.06.027c-.906.414-1.798.831-2.665 1.251 4.173-.383 9.236 1.015 12.9 8.077.188.362.042.809-.327.996l-.041.02c-7.45 3.223-11.911-.403-15.255-3.12-1.667-1.354-3.01-2.446-4.08-2.07-2.627 1.898-4.453 3.995-4.912 6.451-.075.405-.468.672-.876.598-.41-.073-.68-.46-.605-.864.54-2.903 2.609-5.288 5.546-7.405.031-.026.065-.05.1-.072.69-.493 1.43-.97 2.206-1.438.562-.413.393-1.588.18-3.05-.445-3.077-1.037-7.177 3.834-10.515.027-.02.054-.039.083-.058.356-.213.819-.102 1.036.247 2.815 4.514 2.192 7.94.664 10.34.514-.242 1.035-.484 1.56-.725.773-.549.614-2.028.413-3.87-.403-3.748-.945-8.749 5.113-12.574l.065-.04c.36-.202.82-.077 1.025.278 3.461 6.017 2.14 10.332-.124 13.175.3-.103.61-.2.932-.293 1.588-.721 3.156-1.455 4.657-2.218.483-.553.148-1.747-.265-3.22-.887-3.167-2.07-7.389 2.582-11.528l.06-.053c.324-.258.8-.206 1.06.113 4.03 4.928 3.263 8.978 1.551 11.76.129-.061.26-.121.396-.18 1.295-.874 2.461-1.795 3.452-2.776l.013-.014.013-.012c.212-.21.415-.421.61-.637.069-.076.151-.136.24-.176.248-.574.354-1.447.475-2.447.396-3.26.925-7.614 6.87-9.695l.035-.01c.399-.116.817.108.937.498 3.3 10.855-6.606 13.348-8.282 13.69-.222.215-.454.427-.691.639 2.869-.209 6.21.85 9.203 5.118.237.337.152.799-.19 1.033-.028.019-.056.036-.086.049-5.353 3.189-9.124.87-11.95-.869-1.372-.842-2.472-1.517-3.146-1.129-.018.01-.036.02-.054.028-.647.357-1.308.706-1.98 1.05-.032.02-.068.038-.103.051-.186.097-.376.192-.563.287 4.13.113 8.76 2.103 12.232 8.79.189.365.043.811-.326.998l-.042.02M364.919 165.975c-4.95 9.668-12.608 9.58-18.346 9.513-2.854-.034-5.18-.06-6.143 1.206-.424.852-.845 1.7-1.26 2.543-.148.322-.259.54-.31.635-.009.023-.02.045-.033.067-.72 1.48-1.412 2.944-2.05 4.38 3.593-4.005 9.68-7.26 19.295-2.91.371.168.54.611.373.987l-.018.039c-4.573 8.93-11.641 8.847-16.937 8.786-2.74-.031-4.944-.057-5.724 1.263-1.055 3.998-1.17 7.564.353 10.412.193.364.059.818-.301 1.014-.36.196-.808.06-1-.306-1.737-3.25-1.619-7.197-.461-11.561.005-.025.012-.05.018-.074h-.002l.018-.056c.275-1.023.608-2.068.986-3.132.25-.965-.874-2.027-2.272-3.351-2.819-2.666-6.58-6.225-4.507-13.277l.013-.035c.134-.39.557-.595.942-.457 6.567 2.368 8.479 6.546 8.697 10.246.4-.863.815-1.732 1.24-2.606.354-1.262-1-2.638-2.687-4.35-3.297-3.35-7.694-7.816-4.922-16.225.006-.032.018-.064.03-.095.149-.385.58-.575.96-.422 8.356 3.353 10.243 8.963 10.094 13.64.306-.524.649-1.07 1.032-1.621.968-1.98 1.904-3.955 2.756-5.904.07-1.045-1.24-1.998-2.86-3.179-3.296-2.4-7.694-5.605-6.497-13.223l.014-.09c.086-.405.48-.662.88-.576 8.073 1.781 10.305 6.753 10.652 10.945.157-.369.334-.753.533-1.143.688-2.318 1.136-4.555 1.24-6.668.006-.128.044-.247.105-.35-.204-.808-.812-1.792-1.507-2.92-2.154-3.49-5.028-8.149-1.013-14.764l.019-.03c.23-.341.69-.428 1.027-.196 11.64 8.096 3.945 18.302 2.724 19.79-.068.599-.16 1.205-.271 1.817 2.536-2.65 6.616-4.487 13.1-2.54.39.114.615.531.5.928-.01.03-.02.062-.033.09-2.6 7.256-7.984 7.917-12.022 8.412-2.04.25-3.674.45-4.06 1.47-.006.02-.015.037-.023.055-.344.872-.71 1.75-1.094 2.633l-.03.07c-.217.495-.437.99-.663 1.488 4.017-3.406 10.142-5.44 19.089-1.393.372.168.538.611.373.988l-.017.037" transform="translate(-169 -172) translate(169 172)"/>
                <path fill="#3D3C67" d="M262.253 138.507c1.451-1.548 4.307-2.975 9.142-3.497.037-.006.074-.009.11-.01.378-.007.584.27.458.62-1.59 4.384-3.684 6.728-5.596 7.739-2.041 1.079-3.848.69-4.752-.381-.901-1.068-.91-2.82.638-4.471M274.412 137.666c.848-1.892 3.146-4.228 7.775-6.556.034-.019.07-.036.107-.052.373-.153.688.006.698.355.114 4.381-1.068 7.207-2.585 8.818-1.62 1.72-3.576 2.089-4.895 1.522-1.317-.566-2.007-2.067-1.1-4.087M285.49 134.432c.91-1.9 3.226-4.181 7.759-6.338.034-.017.069-.034.104-.047.366-.138.656.04.647.398-.13 4.5-1.406 7.341-2.938 8.918-1.637 1.684-3.519 1.963-4.745 1.316-1.223-.646-1.798-2.22-.827-4.247M269.369 127.008c2.12-.11 5.25.903 9.328 4.048.031.022.062.046.091.073.299.272.28.633-.042.805-4.053 2.153-7.182 2.394-9.311 1.76-2.276-.68-3.423-2.296-3.435-3.769-.012-1.468 1.108-2.8 3.369-2.917M280.741 123.063c2.016.308 4.78 1.815 8.054 5.42.027.027.051.055.074.084.231.301.149.622-.186.716-4.2 1.16-7.189.78-9.08-.199-2.02-1.044-2.811-2.717-2.557-4.042.252-1.323 1.547-2.306 3.695-1.979M312.367 212.58c-.626 2.005-.561 5.268 1.067 9.99.011.036.024.072.038.106.155.355.465.43.692.165 2.842-3.331 3.835-6.27 3.836-8.476.002-2.357-1.075-3.873-2.316-4.265-1.24-.39-2.647.343-3.317 2.48M322.368 203.58c-.628 2.005-.562 5.268 1.066 9.989.011.036.024.074.039.107.154.356.464.43.69.165 2.843-3.331 3.835-6.27 3.837-8.476 0-2.357-1.076-3.875-2.317-4.265-1.239-.39-2.647.343-3.315 2.48" transform="translate(-169 -172) translate(169 172)"/>
                <path fill="#3D3C67" d="M329.569 218.474c-1.977.724-5.26.832-10.108-.523-.038-.01-.075-.021-.11-.034-.367-.133-.462-.434-.21-.674 3.172-2.979 6.064-4.115 8.283-4.232 2.369-.127 3.962.856 4.431 2.06.47 1.2-.18 2.63-2.286 3.403" transform="translate(-169 -172) translate(169 172)"/>
                <path fill="#AC5163" d="M303.794 109.55c.314.765.758 1.587 1.296 2.412 1.333 2.046 3.29 4.187 5.373 5.662.439.31.882.592 1.33.837-1.444.152-2.812-.066-4.06-.498-2.828-.975-5.065-3.028-6.24-4.39-.967-1.12-1.7-2.124-1.93-2.938-.165-.584.006-1.08.694-1.463 1.398-.78 3.006.054 3.537.378zm16.608 3.991c.082-.826.086-1.761-.028-2.813-.311-2.87-.942-5.37-1.882-7.193-.547-1.063-1.203-1.907-1.967-2.48.156-.85.67-2.68 2.198-2.56.187.015.45.29.754.756.611.938 1.18 2.475 1.561 4.268.388 1.818.579 3.879.425 5.831-.118 1.531-.449 2.99-1.061 4.191zm-9.98-11.879c-.366.234-.807.457-1.392.626-.307.088-.546.153-.788.217l-.341.092c.846-.723 1.765-.928 2.522-.935zm5.288-2.765c-1.12-.055-2.827.116-4.036 1.408.226.047.42.098.57.144.596-.267 1.322-.382 2.457-.19.158.026.314.062.467.107.109-.435.28-.962.542-1.469zm-15.865 8.822c.263-4.85 4.937-5.429 6.336-5.493 1.157-1.439 2.537-1.93 3.721-2.032 1.983-3.204 5.73-2.867 6.94-2.662.513-.368 1.167-.586 1.996-.52.682.054 1.323.571 1.88 1.424.706 1.084 1.351 2.803 1.771 4.774.414 1.947.618 4.157.455 6.257-.237 3.033-1.244 5.854-3.473 7.415-.546 1.084-1.152 1.667-1.35 1.838-.034.035-.073.067-.117.095-.309.203-.637.362-.983.483-.867.3-1.794.32-2.744.122-2.54.879-4.931.675-7.026-.049-3.13-1.08-5.588-3.332-6.878-4.827-1.095-1.27-1.937-2.445-2.238-3.507-.364-1.292-.023-2.37 1.403-3.163.102-.057.205-.108.307-.155zm4.748-3.75c-1.027.76-1.642 1.883-1.347 3.7-.543-.184-1.19-.322-1.876-.3.314-2.13 1.89-3.024 3.223-3.4zm12.585 13.61c.133-.115.59-.547 1.01-1.4.024-.088.062-.17.115-.247.473-1.066.852-2.698.598-5.047-.292-2.692-.87-5.012-1.725-6.67-.727-1.41-1.638-2.309-2.719-2.49-1.319-.223-1.845.173-2.499.664-.607.458-1.298.977-2.521 1.33-.21.061-.511.141-.818.223-.538.143-1.094.293-1.584.462-1.622.563-2.942 1.524-2.035 4.155.02.06.042.121.065.183l.002.004c.012.027.023.055.033.083.274.708.697 1.5 1.232 2.319 1.243 1.907 3.06 3.897 4.984 5.26 1.01.715 2.04 1.254 3.016 1.504.047.007.095.018.138.034.735.169 1.437.169 2.068-.051.215-.075.429-.18.64-.317z" transform="translate(-169 -172) translate(169 172)"/>
                <path fill="#85B0B1" d="M324.312 136.454c-.42-.777-.782-1.679-1.076-2.504-.67-1.866-1.118-3.851-1.216-5.826-.306-6.207 2.931-10.634 8.84-13.042.462-.189.986-.043 1.272.355 3.648 5.08 3.922 10.488.209 15.572-1.181 1.618-2.664 3.062-4.266 4.294-.71.545-1.517 1.119-2.304 1.559-.258.143-.534.175-.82.095-.285-.08-.5-.249-.639-.503M320.682 128.16c-.412.185-.887.336-1.32.453-.98.269-2.01.417-3.023.382-3.182-.108-5.313-1.99-6.312-5.177-.078-.25.017-.517.232-.65 2.737-1.684 5.508-1.592 7.959.566.778.686 1.458 1.523 2.024 2.412.25.394.512.84.706 1.27.063.14.07.286.016.432-.052.145-.147.25-.282.311" transform="translate(-169 -172) translate(169 172)"/>
                <path fill="#F0B3B3" d="M293.601 68H290.4c-.771 0-1.4-.63-1.4-1.399v-3.2c0-.772.629-1.401 1.4-1.401h3.201c.77 0 1.399.63 1.399 1.4v3.201c0 .77-.63 1.399-1.399 1.399" transform="translate(-169 -172) translate(169 172)"/>
                <path fill="#FFFFFE" d="M282.6 68h-3.2c-.77 0-1.4-.63-1.4-1.399v-3.2c0-.772.63-1.401 1.4-1.401h3.2c.77 0 1.4.63 1.4 1.4v3.201c0 .77-.63 1.399-1.4 1.399" transform="translate(-169 -172) translate(169 172)"/>
                <path fill="#F0B3B3" d="M271.6 68h-3.2c-.77 0-1.4-.63-1.4-1.399v-3.2c0-.772.63-1.401 1.4-1.401h3.2c.77 0 1.4.63 1.4 1.4v3.201c0 .77-.63 1.399-1.4 1.399" transform="translate(-169 -172) translate(169 172)"/>
                <path fill="#FFFFFE" d="M260.6 68H257.4c-.771 0-1.401-.63-1.401-1.399v-3.2c0-.772.63-1.401 1.401-1.401h3.199c.768 0 1.4.63 1.4 1.4v3.201c0 .77-.632 1.399-1.4 1.399" transform="translate(-169 -172) translate(169 172)"/>
                <path fill="#F0B3B3" d="M249.6 68h-3.2c-.77 0-1.4-.63-1.4-1.399v-3.2c0-.772.63-1.401 1.4-1.401h3.2c.771 0 1.4.63 1.4 1.4v3.201c0 .77-.629 1.399-1.4 1.399" transform="translate(-169 -172) translate(169 172)"/>
                <path fill="#FFFFFE" d="M271.602 56H268.4c-.77 0-1.4-.63-1.4-1.4v-3.2c0-.77.63-1.4 1.4-1.4h3.202c.77 0 1.398.63 1.398 1.4v3.2c0 .77-.628 1.4-1.398 1.4" transform="translate(-169 -172) translate(169 172)"/>
                <path fill="#F0B3B3" d="M260.6 56h-3.2c-.771 0-1.4-.63-1.4-1.4v-3.2c0-.77.629-1.4 1.4-1.4h3.2c.771 0 1.4.63 1.4 1.4v3.2c0 .77-.629 1.4-1.4 1.4" transform="translate(-169 -172) translate(169 172)"/>
                <path fill="#FFFFFE" d="M249.601 56H246.4c-.77 0-1.4-.63-1.4-1.4v-3.2c0-.77.63-1.4 1.4-1.4h3.201c.77 0 1.399.63 1.399 1.4v3.2c0 .77-.63 1.4-1.399 1.4" transform="translate(-169 -172) translate(169 172)"/>
                <path fill="#F0B3B3" d="M101.4 340h3.2c.77 0 1.4-.63 1.4-1.4v-3.2c0-.771-.63-1.4-1.4-1.4h-3.2c-.772 0-1.4.629-1.4 1.4v3.2c0 .77.628 1.4 1.4 1.4" transform="translate(-169 -172) translate(169 172)"/>
                <path fill="#FFFFFE" d="M112.398 340h3.202c.77 0 1.4-.63 1.4-1.4v-3.2c0-.771-.63-1.4-1.4-1.4h-3.202c-.77 0-1.398.629-1.398 1.4v3.2c0 .77.628 1.4 1.398 1.4" transform="translate(-169 -172) translate(169 172)"/>
                <path fill="#F0B3B3" d="M122.398 340h3.202c.77 0 1.4-.63 1.4-1.4v-3.2c0-.771-.63-1.4-1.4-1.4h-3.202c-.77 0-1.398.629-1.398 1.4v3.2c0 .77.628 1.4 1.398 1.4" transform="translate(-169 -172) translate(169 172)"/>
                <path fill="#FFFFFE" d="M133.4 340h3.2c.77 0 1.4-.63 1.4-1.4v-3.2c0-.771-.63-1.4-1.4-1.4h-3.2c-.77 0-1.4.629-1.4 1.4v3.2c0 .77.63 1.4 1.4 1.4" transform="translate(-169 -172) translate(169 172)"/>
                <path fill="#F0B3B3" d="M144.4 340h3.2c.77 0 1.4-.63 1.4-1.4v-3.2c0-.771-.63-1.4-1.4-1.4h-3.2c-.77 0-1.4.629-1.4 1.4v3.2c0 .77.63 1.4 1.4 1.4" transform="translate(-169 -172) translate(169 172)"/>
                <path fill="#FFFFFE" d="M123.4 329h3.2c.771 0 1.4-.63 1.4-1.4v-3.202c0-.77-.629-1.398-1.4-1.398h-3.2c-.77 0-1.4.627-1.4 1.398v3.203c0 .769.63 1.399 1.4 1.399" transform="translate(-169 -172) translate(169 172)"/>
                <path fill="#F0B3B3" d="M134.4 329h3.201c.77 0 1.399-.63 1.399-1.4v-3.202c0-.77-.628-1.398-1.399-1.398h-3.2c-.771 0-1.401.627-1.401 1.398v3.203c0 .769.63 1.399 1.4 1.399" transform="translate(-169 -172) translate(169 172)"/>
                <path fill="#FFFFFE" d="M144.4 329h3.201c.77 0 1.399-.63 1.399-1.4v-3.202c0-.77-.63-1.398-1.399-1.398h-3.2c-.771 0-1.401.627-1.401 1.398v3.203c0 .769.63 1.399 1.4 1.399M79.212 279.636c.318-.318.833-.318 1.151 0 .318.318.318.835 0 1.151l-2.59 2.59c-.317.32-.833.32-1.15 0-.319-.318-.319-.832 0-1.15l2.589-2.591zm2.973 5.549c.45 0 .815.365.815.815 0 .45-.365.815-.815.815h-3.662c-.45 0-.814-.365-.814-.815 0-.45.365-.815.814-.815h3.662zm-1.822 6.028c.318.318.318.833 0 1.151-.318.318-.833.318-1.151 0l-2.59-2.59c-.318-.317-.318-.833 0-1.151.318-.318.834-.318 1.152 0l2.59 2.59zm-5.548 2.972c0 .45-.365.815-.815.815-.45 0-.814-.365-.814-.815v-3.662c0-.448.365-.814.814-.814.45 0 .815.366.815.814v3.662zm-6.027-1.82c-.318.317-.833.317-1.151 0-.319-.319-.319-.834 0-1.152l2.588-2.59c.32-.318.835-.318 1.153 0 .317.318.317.834 0 1.15l-2.59 2.591zm-2.974-5.55c-.448 0-.814-.365-.814-.815 0-.45.366-.815.814-.815h3.663c.45 0 .815.365.815.815 0 .45-.366.815-.815.815h-3.663zm1.823-6.028c-.319-.316-.319-.833 0-1.151.318-.318.833-.318 1.151 0l2.59 2.59c.317.319.317.833 0 1.151-.318.32-.834.32-1.153 0l-2.588-2.59zm5.55-2.972c0-.45.364-.815.813-.815.45 0 .815.365.815.815v3.661c0 .45-.365.815-.815.815-.45 0-.814-.365-.814-.815v-3.661zM163.213 64.636c.318-.318.834-.318 1.152 0 .317.318.317.834 0 1.151l-2.59 2.59c-.318.318-.834.318-1.152 0-.318-.319-.318-.833 0-1.151l2.59-2.59zm2.972 5.55c.45 0 .815.364.815.814 0 .45-.365.814-.815.814h-3.661c-.45 0-.815-.364-.815-.814 0-.45.365-.814.815-.814h3.661zm-1.82 6.027c.317.317.317.833 0 1.15-.318.318-.834.318-1.152 0l-2.59-2.589c-.318-.318-.318-.833 0-1.151.318-.318.834-.318 1.152 0l2.59 2.59zm-5.55 2.972c0 .45-.365.815-.815.815-.45 0-.814-.366-.814-.815v-3.662c0-.45.364-.814.814-.814.45 0 .814.365.814.814v3.662zm-6.028-1.822c-.317.318-.833.318-1.151 0-.317-.317-.317-.833 0-1.15l2.59-2.59c.318-.318.833-.318 1.151 0 .318.318.318.833 0 1.151l-2.59 2.59zm-2.972-5.549c-.45 0-.815-.364-.815-.814 0-.45.365-.814.815-.814h3.661c.45 0 .815.364.815.814 0 .45-.365.814-.815.814h-3.661zm1.82-6.027c-.316-.317-.316-.833 0-1.151.319-.318.835-.318 1.152 0l2.59 2.59c.318.318.318.832 0 1.151-.318.318-.833.318-1.15 0l-2.591-2.59zm5.55-2.973c0-.45.365-.814.815-.814.45 0 .814.365.814.814v3.662c0 .45-.364.815-.814.815-.45 0-.814-.365-.814-.815v-3.662zM386.212 171.637c.318-.318.834-.318 1.151 0 .318.317.318.832 0 1.15l-2.589 2.59c-.317.318-.834.318-1.15 0-.319-.317-.319-.833 0-1.151l2.588-2.59zm2.973 5.55c.45 0 .815.363.815.813 0 .45-.365.814-.815.814h-3.662c-.449 0-.813-.364-.813-.814 0-.45.364-.814.813-.814h3.662zm-1.822 6.026c.318.318.318.833 0 1.151-.317.318-.833.318-1.15 0l-2.59-2.59c-.318-.318-.318-.833 0-1.151.317-.318.834-.318 1.151 0l2.59 2.59zm-5.549 2.973c0 .45-.365.814-.813.814-.45 0-.815-.364-.815-.814v-3.662c0-.45.365-.815.815-.815.448 0 .813.365.813.815v3.662zm-6.026-1.822c-.318.318-.835.318-1.152 0-.318-.318-.318-.833 0-1.151l2.59-2.59c.316-.318.834-.318 1.15 0 .319.318.319.833 0 1.151l-2.588 2.59zm-2.973-5.55c-.451 0-.815-.364-.815-.814 0-.45.364-.814.815-.814h3.662c.449 0 .814.364.814.814 0 .45-.365.814-.814.814h-3.662zm1.821-6.027c-.318-.318-.318-.833 0-1.15.317-.318.834-.318 1.152 0l2.589 2.589c.318.318.318.834 0 1.151-.317.318-.835.318-1.152 0l-2.589-2.59zm5.55-2.972c0-.45.365-.815.815-.815.448 0 .813.365.813.815v3.661c0 .45-.365.815-.813.815-.45 0-.815-.365-.815-.815v-3.661zM141.523 167.507c-1.97-2.01-5.194-2.01-7.164 0l-.858.877-.86-.877c-1.97-2.01-5.194-2.01-7.164 0-1.97 2.01-1.97 5.298 0 7.308l.86.877L133.5 183l7.162-7.308.86-.877c1.97-2.01 1.969-5.298 0-7.308M277.523 215.508c-1.97-2.01-5.194-2.01-7.164 0l-.859.876-.86-.876c-1.97-2.01-5.193-2.01-7.163 0-1.97 2.01-1.97 5.298 0 7.308l.86.876L269.5 231l8.023-8.184c1.97-2.01 1.97-5.299 0-7.308M290.522 82.508c-1.97-2.01-5.194-2.01-7.164 0l-.858.877-.86-.877c-1.97-2.01-5.193-2.01-7.163 0-1.97 2.01-1.97 5.298 0 7.307l.86.877L282.5 98l7.163-7.308.86-.877c1.97-2.01 1.97-5.298 0-7.307M67.5 138c1.377 0 2.5-1.123 2.5-2.5s-1.123-2.5-2.5-2.5-2.5 1.123-2.5 2.5 1.123 2.5 2.5 2.5M142.5 300c1.377 0 2.5-1.125 2.5-2.501 0-1.377-1.123-2.499-2.5-2.499s-2.5 1.122-2.5 2.499c0 1.376 1.123 2.501 2.5 2.501M315.5 327c1.377 0 2.5-1.122 2.5-2.5 0-1.377-1.123-2.5-2.5-2.5-1.376 0-2.5 1.123-2.5 2.5 0 1.378 1.124 2.5 2.5 2.5M295.5 175c1.378 0 2.5-1.123 2.5-2.5s-1.122-2.5-2.5-2.5c-1.377 0-2.5 1.123-2.5 2.5s1.123 2.5 2.5 2.5M322.212 283.635c.318-.318.835-.318 1.153 0 .317.32.317.835 0 1.152l-2.59 2.59c-.317.319-.834.319-1.152 0-.317-.317-.317-.835 0-1.151l2.59-2.59zm2.974 5.55c.45 0 .814.366.814.815 0 .45-.363.815-.814.815h-3.662c-.45 0-.814-.365-.814-.815 0-.45.364-.815.814-.815h3.662zm-1.821 6.028c.317.317.317.833 0 1.151-.318.318-.835.318-1.153 0l-2.589-2.59c-.317-.317-.317-.834 0-1.152.318-.318.835-.318 1.152 0l2.59 2.591zm-5.55 2.972c0 .45-.364.815-.815.815-.45 0-.814-.365-.814-.815v-3.662c0-.45.365-.814.814-.814.45 0 .815.364.815.814v3.662zm-6.027-1.821c-.318.318-.834.318-1.151 0-.318-.318-.318-.834 0-1.15l2.589-2.592c.318-.318.834-.318 1.152 0 .317.318.317.835 0 1.151l-2.59 2.591zm-2.974-5.55c-.45 0-.814-.364-.814-.814 0-.45.365-.815.814-.815h3.663c.449 0 .814.366.814.815 0 .45-.365.815-.814.815h-3.663zm1.823-6.027c-.318-.317-.318-.833 0-1.152.317-.318.833-.318 1.15 0l2.59 2.591c.318.316.318.834 0 1.152-.317.318-.833.318-1.151 0l-2.59-2.591zm5.549-2.972c0-.45.365-.815.814-.815.45 0 .815.365.815.815v3.662c0 .45-.364.814-.815.814-.45 0-.814-.364-.814-.814v-3.662zM380.523 309.507c-1.97-2.01-5.193-2.01-7.163 0l-.86.877-.86-.877c-1.97-2.01-5.193-2.01-7.163 0-1.97 2.01-1.97 5.299 0 7.309l.86.876 7.162 7.308 8.024-8.184c1.97-2.01 1.97-5.298 0-7.309" transform="translate(-169 -172) translate(169 172)"/>
                <path fill="#DD8172" d="M216.648 127.286c-8.878 5.738-18.948 12.19-18.948 12.19l-.256-4.145h-8.784l-.646 9.42s-.393 4.56 2.999 6.458c3.39 1.896 8.857-.068 11.562-1.2 2.705-1.131 19.616-9.094 19.616-9.094 9.578-4.297 3.335-19.367-5.543-13.629" transform="translate(-169 -172) translate(169 172)"/>
                <path fill="#5A3148" d="M179 150.255c3.304 8.205 5.69 13.47 6.115 14.73.602 1.783 4.07 6.406 10.362 6.858 6.29.453 35.418-.216 35.89-.23.472-.018 1.666-.626 1.632-1.593-.035-.968-2.43-16.385-2.748-17.71-.316-1.325-1.264-1.427-3.453-1.284-2.188.142-22.189 1.297-22.189 1.297s-.165-1.831-.692-2.448c-.529-.616-2.034-.264-2.034-.264l-.193-.611-22.69 1.255" transform="translate(-169 -172) translate(169 172)"/>
                <path fill="#DD8172" d="M173.255 338.098l-.187 1.23s-.793 5.25-1.012 6.257c-.221 1.008.286 3.358.286 3.358s1.923 2.269 3.836 2.598c1.913.332 10.671.701 10.815.248.145-.454-1.908-4.041-1.908-4.041s-1.008-2.046-.071-8.29c-.01-4.576-11.759-1.36-11.759-1.36" transform="translate(-169 -172) translate(169 172)"/>
                <path fill="#2D161C" d="M183.44 349.101l-1.058-.366s-2.4 1.219-5.42.225c-3.019-.994-4.193-2.628-4.193-2.628s-.147-.332-.472-.332h-.356c-.283 0-1.069.119-1.394.865-.325.746-1.006 5.294-.079 7.814.928 2.52 2.228 2.19 2.228 2.19s5.157-1.47 8.638-.285C184.813 357.768 188 359 188 359s-.168-6.678-4.56-9.899" transform="translate(-169 -172) translate(169 172)"/>
                <path fill="#2E2C52" d="M207.6 358.881l.4-1.125v-1.368c0-.511-.223-2.05-1.772-2.05h-5.93c-1.375 0-8.812-3.63-14.526-8.094 0 0-.401-.454-1.002-.123-.6.33-2.42 1.729-2.606 1.876-.186.147-.207.748-.098.958.11.207 5.397 10.266 5.397 10.266s15.57 1.961 20.138-.34" transform="translate(-169 -172) translate(169 172)"/>
                <path fill="#2E2C52" d="M207.657 357.667s.343.281.343.594v1.106c0 .246-.675 1.408-2.186 1.408h-16.19c-2.111 0-4.34-.528-5.782-1.242-1.441-.71-4.17-1.503-4.17-1.503s-.385-.13-.385.524v1.267c0 .317.197 1.179-1.124 1.179h-7.876c-.601 0-1.287-.336-1.287-1.545v-3.108c0-.752.463-1.347.96-1.347h6.057c2.54 0 4.565.613 7.723 2.08 3.157 1.466 6.039 1.9 9.334 1.9h9.06c1.596 0 4.444-.356 5.523-1.313" transform="translate(-169 -172) translate(169 172)"/>
                <path fill="#F0AB96" d="M169.254 338.098l-.186 1.23s-.793 5.25-1.013 6.257c-.22 1.008.287 3.358.287 3.358s1.924 2.269 3.836 2.598c1.912.332 10.671.701 10.815.248.144-.454-1.91-4.041-1.91-4.041s-1.005-2.046-.069-8.29c-.01-4.576-11.76-1.36-11.76-1.36" transform="translate(-169 -172) translate(169 172)"/>
                <path fill="#2E2C52" d="M178.44 349.101l-1.059-.366s-2.4 1.219-5.42.225c-3.018-.994-4.192-2.628-4.192-2.628s-.147-.332-.472-.332h-.356c-.283 0-1.069.119-1.393.865-.327.746-1.007 5.294-.079 7.814.927 2.52 2.227 2.19 2.227 2.19s5.157-1.47 8.637-.285C179.813 357.768 183 359 183 359s-.168-6.678-4.56-9.899" transform="translate(-169 -172) translate(169 172)"/>
                <path fill="#3D3C67" d="M202.617 358.881l.383-1.125v-1.368c0-.511-.213-2.05-1.703-2.05h-5.703c-1.321 0-8.472-3.63-13.966-8.094 0 0-.388-.454-.964-.123-.577.33-2.328 1.729-2.505 1.876-.18.147-.2.748-.096.958l5.19 10.266s14.972 1.961 19.364-.34" transform="translate(-169 -172) translate(169 172)"/>
                <path fill="#3D3C67" d="M202.665 357.667s.335.281.335.594v1.106c0 .246-.657 1.408-2.128 1.408-11.545 0-23.088.225-34.619.225-.585 0-1.253-.336-1.253-1.545v-3.108c0-.752.451-1.347.937-1.347h5.9c2.475 0 4.448.613 7.525 2.08 3.075 1.466 5.885 1.9 9.094 1.9h8.829c1.555 0 4.33-.356 5.38-1.313" transform="translate(-169 -172) translate(169 172)"/>
                <path fill="#2E2C52" d="M236.01 106c-.074.368-.172.752-.3 1.153-1.756 5.505-2.14 6.146-.602 8.631 1.538 2.485 3.95 7.004-1.43 12.547-5.381 5.541-.928 8.096-1.83 11.204-.902 3.108-6.163 2.239-7.555 3.972-1.392 1.732-1.41 5.11-5.385 4.395-3.975-.715-6.483-7.716-3.78-12.981 2.702-5.265 3.006-6.404 1.738-7.333-1.267-.93-5.84-6.338 1.35-14.345 2.933-3.268 4.123-5.612 4.502-7.243h13.293" transform="translate(-169 -172) translate(169 172)"/>
                <path fill="#F0AB96" d="M223 112.874c1.67-.324 1.988.377 2.743 1.544 1.51 2.338 4.833 7.582 4.833 7.582H242l-9.455-19-8.797 4.924-.748 4.95" transform="translate(-169 -172) translate(169 172)"/>
                <path fill="#DD8172" d="M223 112.663c.962-.181 1.479-.035 1.888.337l9.039-2.134 1.073-3.23-2.377-4.636-8.87 4.819-.753 4.844" transform="translate(-169 -172) translate(169 172)"/>
                <path fill="#6A3E56" d="M192 122s3.385 2.744 4.145 3.581c.758.837 7.286 24.089 7.563 27.167.276 3.078-.524 20.596-.524 20.596s4.39 33.87 4.805 37.083c.414 3.212-10.635 10.573-10.635 10.573L192 122" transform="translate(-169 -172) translate(169 172)"/>
                <path fill="#FFFFFE" d="M271.826 331.644c-12.845-22.455-25.392-96.922-24.857-118.307.536-21.386-11.654-33.452-11.654-33.452-10.337-21.854 16.068-41.503 9.448-55.697-1.315-2.82-4.261-4.188-4.261-4.188.354 1.16-1.09 1.314-4.97 1.448-3.88.133-7.016 1.242-7.016 1.242s-6.836 7.511-7.572 8.246c-.735.735-11.173 5.949-12.51 8.22-1.339 2.273 1.337 12.431 1.204 17.977-.134 5.548-1.41 15.982-1.807 21.587-.397 5.604-6.289 39.027-5.753 62.284.535 23.256-6.183 71.527-8.86 85.961 0 0-.334 1.47.2 2.807.536 1.336 4.015 2.607 4.015 2.607s-3.88 22.12-4.35 23.79c-.468 1.671 1.071 4.545 3.48 5.414 2.408.868 19.936 4.276 33.45 1.068 0 0 2.943-1.202 2.81-4.678 0 0 14.852.401 22.077-3.608 0 0 1.07-.401 1.07-3.074 0-2.674-.534-4.812-.534-4.812s10.97-4.812 16.055-12.296c0 0 .87-.803.335-2.54" transform="translate(-169 -172) translate(169 172)"/>
                <path fill="#D7D6E2" d="M232.988 174c-1.544-8.598 1.54-16.797 5.012-24.392L234.757 146s-.619 6.382-.883 7.672c-.263 1.29-14.874 13.511-14.874 13.511l3.07 5.465L232.988 174" transform="translate(-169 -172) translate(169 172)"/>
                <path fill="#D7D6E2" d="M233 174.035c-.218-1.018-.374-2.029-.47-3.035l-24.283 1.643c-.194 2.107-.364 4.048-.47 5.62-.076 1.145-.367 3.417-.777 6.507l16.787.23s2.039 0 1.513-2.342c-.526-2.342-1.184-4.066-1.184-4.066l8.68-2.617.204-1.94M208 143.615c.33 3.654 1.287 8.655 1.455 12.385 7.651-.008 14.266-7.523 14.266-7.523l12.57-13.627 1.613 6.373s.47-6.71-.672-8.067c-1.142-1.357-14.25 6.575-14.25 6.575L208 143.615" transform="translate(-169 -172) translate(169 172)"/>
                <path fill="#F0AB96" d="M224.866 176.794c2.812.355 6.826.56 8.737-2.099.568-.789 2.76-5.656 2.345-8.596-.1-.7-1.991-1.224-2.322-1.453 0 0-2.109.501-2.467.794-.113.092 1.476-1.49 1.444-2.18-.029-.603-1.463.018-2.089.122-.418.07-1.871 0-3.145.572-1.562.701-2.66 2.02-2.904 2.607-1.243 3 .401 10.233.401 10.233" transform="translate(-169 -172) translate(169 172)"/>
                <path fill="#FFFFFE" d="M219 164.32s4.862-.252 5.32-.314c.457-.062.712.37.932.805.222.434 1.724 13.594 1.724 13.594s.212.881-.623 1.275c-.835.393-5.461 1.32-5.461 1.32L219 164.32" transform="translate(-169 -172) translate(169 172)"/>
                <path fill="#37202D" d="M198.833 203.013s.484 15.161-.196 18.234c-.679 3.071-10.53 112.604-10.777 119.283 0 0-.13 1.47-1.89 1.47h-11.113s-1.4-.069-1.597-2.204c-.198-2.138.942-46.486.894-47.821-.048-1.336-.92-2.004-1.02-3.073-.1-1.067 1.261-2.07 1.592-3.004.331-.934-9.143-66.99-8.712-75.271.431-8.282 32.819-7.614 32.819-7.614" transform="translate(-169 -172) translate(169 172)"/>
                <path fill="#4C2B3C" d="M198 203.013s-.06 15.161-.846 18.234c-.785 3.071-14.509 112.604-14.992 119.283 0 0-.182 1.47-1.935 1.47h-11.065s-1.39-.069-1.511-2.204c-.121-2.138 2.6-46.486 2.6-47.821 0-1.336-.847-2.004-.907-3.073-.06-1.067 1.33-2.07 1.693-3.004.362-.934-6.71-66.99-5.985-75.271.725-8.282 32.948-7.614 32.948-7.614" transform="translate(-169 -172) translate(169 172)"/>
                <path fill="#BAB6CF" d="M198.79 198.785s1.823-6.258 2.137-7.3c.313-1.043-.48-5.485-.48-5.485s-4.42 9.757-4.447 10.16c-.025.405 1.366 3.702 2.79 2.625" transform="translate(-169 -172) translate(169 172)"/>
                <path fill="#BAB6CF" d="M194 204.922l4.99.078s.98-.008.98-1.414.03-4.638.03-4.638-.09-.738-.747-.914c-.656-.176-3.67.387-3.67.387l-1.583 6.5" transform="translate(-169 -172) translate(169 172)"/>
                <path fill="#D7D6E2" d="M193.646 125.323L198 148 177 128.702 184.244 112 193.481 122.646 193.646 125.323" transform="translate(-169 -172) translate(169 172)"/>
                <path fill="#F0AB96" d="M192.99 121l3.055-8.875.955-8.552s-4.282-3.229-4.848-4.059c-.566-.83-7.391-3.514-7.391-3.514l-3.412 6.437-2.349 8.066 4.635 4.862L192.99 121" transform="translate(-169 -172) translate(169 172)"/>
                <path fill="#E07F76" d="M194.756 116l1.286-3.802.958-8.73s-4.294-3.296-4.862-4.142c-.46-.689-5.055-2.621-6.772-3.326-.36.196-.723.397-1.089.596l-2.973 5.712-.304 1.063L194.756 116" transform="translate(-169 -172) translate(169 172)"/>
                <path fill="#F0AB96" d="M207.424 85.89c.268.87 2.414 3.706 1.214 7.8-1.39 4.748-1.656 6.952-.099 8.598 0 0 .288.433-.042.966-.331.531-1.447 1.307-2.7 1.323-.848.912-2.168 3.531-2.654 4.438-1.55 2.88-2.474 4.296-5.89 3.928-3.418-.37-11.968-4.063-11.205-11.32.764-7.257 1.58-7.032 1.58-7.032s11.63-11.032 12.361-11.104c.731-.07 7.32-1.487 7.32-1.487l.115 3.89" transform="translate(-169 -172) translate(169 172)"/>
                <path fill="#DD8172" d="M204 106.39c-.063.2-.118.405-.17.61-.035.01-.56-.11-.597-.107-1.164.077-2.464-.385-3.157-1.293-.13-.169-.09-.407.09-.529.179-.121.432-.084.56.085.559.73 2.033 1.141 2.95 1.107.127-.007.245.043.324.127" transform="translate(-169 -172) translate(169 172)"/>
                <path fill="#E98F7A" d="M201.89 111.81c-.968.863-2.437 1.363-4.493 1.135-1.127-.127-2.82-.632-4.548-1.525-.54-1.18-1.085-1.627-.742-3.91.343-2.284 2.647-5.477 4.5-6.51l3.161 6.738c.745-1.626.688-2.93 2.222-2.518 0 0 .057 4.806-.1 6.59" transform="translate(-169 -172) translate(169 172)"/>
                <path fill="#3D3C67" d="M190.027 96.155c3.794-.754 3.501-1.575 4.464-4.673 3.757-.058 5.97-2.216 7.194-4.11 1.343.59 3.496-.06 2.928-1.954l3.42 1.864c13.019 2.209 7.885-28.922.154-12.908 0 0-8.015-9.162-17.945-8.32-3.756.292-5.902 3.235-7.05 5.699-.687-2.48-2.917-3.362-3.585-.893-.512 1.893.179 3.754.84 4.972-10.775 5.592 1.446 24.54 1.23 26.89-.014.178-.026.278-.026.278l.285-.093 2.416-2.711 5.675-4.041" transform="translate(-169 -172) translate(169 172)"/>
                <path fill="#FFFFFE" d="M179.62 106s1.41.014 2.059.627c.649.613 11.222 13.18 12.043 14.796.82 1.616-.433 4.577-.433 4.577s-9.082-11.189-17.289-14.804c0 0 2.745-4.878 3.62-5.196" transform="translate(-169 -172) translate(169 172)"/>
                <path fill="#F0AB96" d="M189.5 95.774c-.536-8.214-8.128-6.626-8.482-1.672-.354 4.954 4.602 6.898 4.602 6.898l4.38-1.787-.5-3.439" transform="translate(-169 -172) translate(169 172)"/>
                <path fill="#DD8172" d="M199.422 99.177c-1.283-.509-2.735.118-3.245 1.4-.51 1.284.118 2.737 1.4 3.246 1.284.51 2.737-.118 3.246-1.401.51-1.283-.118-2.736-1.4-3.245" transform="translate(-169 -172) translate(169 172)"/>
                <path fill="#2E2C52" d="M202.498 93.076c.985-.23 2.056-.085 2.804.784.16.189.42.186.58-.006.16-.19.156-.497-.004-.684-.9-1.05-2.352-1.384-3.56-1.04-.22.06-.359.322-.307.582.049.259.272.423.487.364" transform="translate(-169 -172) translate(169 172)"/>
                <path stroke="#DD8172" stroke-linecap="round" stroke-linejoin="round" stroke-width=".709" d="M188 95.11c-.619-4.479-4.98-3.537-5-.83-.021 2.707 2.937 3.72 2.937 3.72m1.142-5.163s-2.724 1.442-.337 3.414" transform="translate(-169 -172) translate(169 172)"/>
                <path fill="#2E2C52" d="M201.697 96.119c.76.721 1.757 1.195 2.786.917.222-.06.449.085.504.324.057.237-.08.478-.302.539-1.24.336-2.651-.196-3.555-1.131-.167-.169-.174-.451-.017-.63.156-.177.42-.184.584-.019M198.304 83.892c-2.734-2.542-6.741-6.047-8.916-6.741-3.185-1.016-5.185-.882-6.81-.882-1.628 0-2.549-1.246-2.549-1.246-.668-1.242-1.367-3.139-.849-5.069.676-2.517 2.932-1.617 3.627.91 1.162-2.511 3.332-5.511 7.133-5.808 10.046-.86 18.156 8.48 18.156 8.48 7.821-16.324 13.015 15.41-.157 13.158l-3.46-1.9c.575 1.93-1.603 2.593-2.962 1.991-.202-.089-.386-.206-.54-.352-.409-.387-1.404-1.36-2.673-2.541" transform="translate(-169 -172) translate(169 172)"/>
                <path fill="#3D3C67" d="M214.331 81.73c-9.724 1.56-22.399-3.662-28.331-14.661.643-.463 1.37-.836 2.192-1.069 7.096 11.783 18.797 11.652 26.105 6.545.787 2.377.967 5.749.263 8.655-.072.18-.148.357-.229.53" transform="translate(-169 -172) translate(169 172)"/>
                <path fill="#6A3E56" d="M176.247 110.274s-11.234 9.97-13.508 16.938c-2.272 6.969 3.88 41.943 3.88 44.087 0 2.145-.67 2.446-.87 3.183-.2.736.603 1.24.769 1.875.167.637-1.404 2.613-1.738 3.484-.334.872 1.304 3.418 1.504 3.954.2.535-13.506 23.618-14.242 24.422-.736.803 8.226 9.984 29.89 14.673 0 0 6.419 1.072 8.225-3.484 1.804-4.556 13.106-28.877 12.838-40.266-.267-11.391-2.74-24.454-3.409-27.805-.67-3.35-14.911-45.09-23.339-41.061" transform="translate(-169 -172) translate(169 172)"/>
                <path fill="#5A3148" d="M163 143.348c.722 7.115 1.858 14.987 2.68 20.566l9.54 17.815s2.47 4.4 8.143 4.268c4.104-.097 13.968-.995 19.114-1.486.364-2.02.556-3.876.518-5.475-.049-2.07-.171-4.197-.343-6.31l-16.885-1.262-16.821-18.932L165.608 138 163 143.348" transform="translate(-169 -172) translate(169 172)"/>
                <path fill="#814C5F" d="M176 110.388s2.793 7.61 3.258 9.094c.032.105.151.341.34.69l3.727.364-1.695 3.24c4.986 8.78 16.397 29.22 20.37 46.224 0 0-.37-19.157-9.664-39.525-9.293-20.368-15.36-21.475-15.36-21.475l-.976 1.388" transform="translate(-169 -172) translate(169 172)"/>
                <path fill="#814C5F" d="M164.893 151.21c5.824 14.665 10.563 24.357 11.203 26.122.64 1.766 4.204 6.303 10.493 6.618 6.289.316 35.346-.976 35.817-1.003.47-.025 1.647-.659 1.592-1.623-.054-.963-2.785-16.288-3.131-17.602-.345-1.314-1.292-1.395-3.473-1.206-2.181.189-22.118 1.77-22.118 1.77s-.206-1.822-.746-2.426c-.54-.603-2.035-.22-2.035-.22s-6.127-18.032-9.229-27.338c-6.538-19.63-31.847-17.013-18.373 16.908" transform="translate(-169 -172) translate(169 172)"/>
                <path fill="#F0AB96" d="M228.001 107.144c-2.03 6.217-10.699 7.05-12.923 6.824-3.395-.349-1.218-4.722-2.435-8.09-1.05-.24-1.897-1.857-1.573-2.168.324-.31 2.567-2.471 2.838-4.126l.918-5.604c1.193-7.295 7.157-8.98 7.157-8.98L231 102.011s-2.467 2.569-2.999 5.133" transform="translate(-169 -172) translate(169 172)"/>
                <path fill="#DD8172" d="M219.205 102.01c1.097.114 1.897 1.097 1.784 2.194-.113 1.1-1.095 1.898-2.193 1.785-1.098-.112-1.898-1.095-1.785-2.193.114-1.1 1.095-1.898 2.194-1.785" transform="translate(-169 -172) translate(169 172)"/>
                <path fill="#2E2C52" d="M219.351 96.952c.191.088.452.052.579-.08.128-.133.075-.312-.116-.398-1.007-.47-2.435-.635-3.565-.29-.21.065-.307.236-.213.38.093.145.343.21.552.146.909-.278 1.955-.11 2.763.242M216.158 100.781c-.188-.158-.211-.437-.054-.624.16-.187.441-.21.627-.052.004.001 1.119.951 2.354.111.202-.138.48-.086.618.116.076.111.096.245.063.366l.175.253c.105.151.066.358-.085.463-.151.104-.359.066-.463-.086l-.13-.185-.062.03.095.218c.072.169-.005.364-.174.438-.169.071-.366-.006-.439-.174l-.112-.26c-.034.008-.069.014-.102.02l.006.242c.007.183-.139.336-.323.343-.185.005-.338-.139-.343-.323l-.008-.234c-.962-.082-1.64-.66-1.643-.662" transform="translate(-169 -172) translate(169 172)"/>
                <path fill="#F0AB96" d="M225.97 124.323c-7.039 7.815-15.04 16.625-15.04 16.625L201.772 115 197 118.456l5.984 30.083s.846 4.426 4.635 5.313c3.79.887 8.544-2.438 10.857-4.235 2.31-1.798 16.518-13.873 16.518-13.873 8.104-6.636-1.982-19.236-9.023-11.421" transform="translate(-169 -172) translate(169 172)"/>
                <path fill="#2E2C52" d="M229.296 99.222s-9.405-.445-8.466-11.12c0 0-1.928 1.355-4.15 1.013 0 0-.936 1.364-1.495 3.08 0 0-2.27-5.032-.526-8.455 1.743-3.424 7.513-2.147 7.513-2.147 2.404-5.692 25.843-5.364 21.011 6.42 9.509 4.413 2.37 16.655 9.036 21.908 3.152 2.482 8.384 7.182 3.956 16.848-4.426 9.667 2.55 10.876 2.818 15.305.267 4.43-6.976 5.774-7.982 8.66-1.006 2.887.536 7.25-4.964 8.19-5.5.939-12.007-6.914-10.933-14.969 1.072-8.055.938-9.667-1.14-10.27-2.08-.605-10.534-5.438-4.899-19.131 5.634-13.694.22-15.332.22-15.332" transform="translate(-169 -172) translate(169 172)"/>
                <path fill="#F0AB96" d="M227 104.386c1.744-8.402 10.34-5.874 7.388.094-1.592 3.217-5.938 3.52-5.938 3.52l-1.45-3.614" transform="translate(-169 -172) translate(169 172)"/>
                <path stroke="#DD8172" stroke-linecap="round" stroke-linejoin="round" stroke-width=".709" d="M229 101.896c1.943-3.587 4.722-1.391 3.828.903-.893 2.294-3.332 2.2-3.332 2.2m.92-4.728s1.45 2.092-.906 2.993" transform="translate(-169 -172) translate(169 172)"/>
                <path fill="#3D3C67" d="M220 81.931c5.164 7.75 16.488 13.453 28 11.774-.298-.864-.704-1.68-1.26-2.425-10.33.76-16.865-5.29-19.126-12.28-2.743.552-4.921 1.639-5.572 3.157 0 0-.87-.191-2.042-.226" transform="translate(-169 -172) translate(169 172)"/>
                <path fill="#2E2C52" d="M229.967 98.779l-.564 1.028s-1.92.775-2.08 3.193c0 0-2.226-2.451-.903-5.004 1.322-2.554 3.58.612 3.58.612l-.033.17" transform="translate(-169 -172) translate(169 172)"/>
                <path stroke="#6A3E56" stroke-linecap="round" stroke-linejoin="round" stroke-width=".709" d="M195 164.781l-5 .219m2.388-3l-.902.795" transform="translate(-169 -172) translate(169 172)"/>
                <path stroke="#5A3148" stroke-linecap="round" stroke-linejoin="round" stroke-width=".709" d="M166.052 176l2.948 4.132M166 184l1.108-1.406" transform="translate(-169 -172) translate(169 172)"/>
                <path stroke="#6A3E56" stroke-linecap="round" stroke-linejoin="round" stroke-width=".709" d="M184 121L185 119" transform="translate(-169 -172) translate(169 172)"/>
                <path stroke="#D7D6E2" stroke-linecap="round" stroke-linejoin="round" stroke-width=".709" d="M256 346.505s-10.46-45.462-14.206-101.067M230.22 177s8.63 6.482 12.778 20.251m-14.519-19.85s12.778 16.106 12.778 49.792M233.388 358s-1.494-47.934-1.763-68.52m-6.957-105.464s8.696 12.164 7.625 68.037M198 332.403s7.535-62.706 7.803-95.053m3.951-52.623s-1.137 9.022-1.523 14.837m9.612-15.047s2.14 38.965 1.338 54.47c-.802 15.505-2.14 53.467-2.14 53.467" transform="translate(-169 -172) translate(169 172)"/>
                <path stroke="#DD8172" stroke-linecap="round" stroke-linejoin="round" stroke-width=".709" d="M210.433 141s.216.506.098 1" transform="translate(-169 -172) translate(169 172)"/>
                <path fill="#F0AB96" d="M196.4 117.617c-2.455-3.513-4.54-10.73-2.694-11.785.365-.209.008-1.149.187-1.543.178-.39.827-.376.895-.788.146-.877 1.298-1.152 1.258-1.85-.046-.79.886-.71 1.112-.536.991.772 3.255 7.678 3.255 7.678s.714-4.677 1.473-3.839c.757.838 1.114 5.869 1.114 7.015 0 1.147-.803 7.458-.803 7.458l-4.772.573-1.026-2.383" transform="translate(-169 -172) translate(169 172)"/>
                <path stroke="#DD8172" stroke-linecap="round" stroke-linejoin="round" stroke-width=".709" d="M195.361 102l2.639 6.856m-3.8-5.122l2.112 5.91m-3.312-3.56l1.758 4.916" transform="translate(-169 -172) translate(169 172)"/>
                <path fill="#DD8172" d="M216.351 108.048c.192-.088.451-.052.58.08.127.133.074.312-.119.4-1.005.468-2.433.633-3.563.287-.21-.064-.307-.235-.213-.38.094-.144.343-.21.553-.146.908.278 1.954.112 2.762-.241" transform="translate(-169 -172) translate(169 172)"/>
            </g>
        </g>
    </g>
</svg>
